# xmcd CD database file
#
# Track frame offsets:
#	150
#	41941
#	62729
#	98552
#	115706
#	147207
#	167571
#	195881
#
# Disc length: 3040 seconds
#
# Revision: 0
# Processed by: cddbd v1.5PL3 Copyright (c) Steve Scherf et al.
# Submitted via: CDex 1.51
#
DISCID=620bde08
DTITLE=James Twyman - May Peace Prevail on Earth
DYEAR=1900
DGENRE=New Age
TTITLE0=Ecclesia
TTITLE1=May Peace Prevail on Earth
TTITLE2=Contemplation Chant
TTITLE3=Neda's Song
TTITLE4=The Sacred Office of Peace
TTITLE5=Leveled
TTITLE6=Quiet Passion
TTITLE7=Amazing Grace
EXTD=
EXTT0=
EXTT1=
EXTT2=
EXTT3=
EXTT4=
EXTT5=
EXTT6=
EXTT7=
PLAYORDER=
